HIERARCHY
ROOT mixamorig7:Hips
{
	OFFSET 0.000000 99.793892 0.000000
	CHANNELS 6 Xposition Yposition Zposition Xrotation Yrotation Zrotation
	JOINT mixamorig7:Spine
	{
		OFFSET 0.000000 9.694397 -1.109700
		CHANNELS 3 Xrotation Yrotation Zrotation
		JOINT mixamorig7:Spine1
		{
			OFFSET 0.000000 11.310143 -1.294687
			CHANNELS 3 Xrotation Yrotation Zrotation
			JOINT mixamorig7:Spine2
			{
				OFFSET 0.000000 12.925888 -1.479643
				CHANNELS 3 Xrotation Yrotation Zrotation
				JOINT mixamorig7:Neck
				{
					OFFSET 0.000000 14.541641 -1.664600
					CHANNELS 3 Xrotation Yrotation Zrotation
					JOINT mixamorig7:Head
					{
						OFFSET 0.000000 6.944305 1.982500
						CHANNELS 3 Xrotation Yrotation Zrotation
						JOINT mixamorig7:HeadTop_End
						{
							OFFSET 0.000000 22.789597 6.506100
							CHANNELS 3 Xrotation Yrotation Zrotation
							End Site
							{
								OFFSET 0.000000 23.700119 0.000000
							}
						}
					}
				}
				JOINT mixamorig7:LeftShoulder
				{
					OFFSET 6.681300 12.786087 -1.621969
					CHANNELS 3 Xrotation Yrotation Zrotation
					JOINT mixamorig7:LeftArm
					{
						OFFSET 13.585576 -3.446136 0.085203
						CHANNELS 3 Xrotation Yrotation Zrotation
						JOINT mixamorig7:LeftForeArm
						{
							OFFSET 27.330299 0.000000 -0.000001
							CHANNELS 3 Xrotation Yrotation Zrotation
							JOINT mixamorig7:LeftHand
							{
								OFFSET 20.888802 0.000000 -0.000001
								CHANNELS 3 Xrotation Yrotation Zrotation
								JOINT mixamorig7:LeftHandThumb1
								{
									OFFSET 3.934731 -1.328445 2.632622
									CHANNELS 3 Xrotation Yrotation Zrotation
									JOINT mixamorig7:LeftHandThumb2
									{
										OFFSET 3.046997 -1.759186 1.759186
										CHANNELS 3 Xrotation Yrotation Zrotation
										JOINT mixamorig7:LeftHandThumb3
										{
											OFFSET 2.671288 -1.542267 1.542270
											CHANNELS 3 Xrotation Yrotation Zrotation
											JOINT mixamorig7:LeftHandThumb4
											{
												OFFSET 2.059540 -1.189072 1.189075
												CHANNELS 3 Xrotation Yrotation Zrotation
												End Site
												{
													OFFSET 1.871078 -1.157242 1.493111
												}
											}
										}
									}
								}
								JOINT mixamorig7:LeftHandIndex1
								{
									OFFSET 11.356102 -0.357925 2.480554
									CHANNELS 3 Xrotation Yrotation Zrotation
									JOINT mixamorig7:LeftHandIndex2
									{
										OFFSET 3.230431 0.000000 -0.000000
										CHANNELS 3 Xrotation Yrotation Zrotation
										JOINT mixamorig7:LeftHandIndex3
										{
											OFFSET 3.093842 0.000000 -0.000000
											CHANNELS 3 Xrotation Yrotation Zrotation
											JOINT mixamorig7:LeftHandIndex4
											{
												OFFSET 2.710304 0.000000 -0.000000
												CHANNELS 3 Xrotation Yrotation Zrotation
												End Site
												{
													OFFSET 2.710297 0.000031 0.002100
												}
											}
										}
									}
								}
								JOINT mixamorig7:LeftHandMiddle1
								{
									OFFSET 11.227951 0.000000 -0.000001
									CHANNELS 3 Xrotation Yrotation Zrotation
									JOINT mixamorig7:LeftHandMiddle2
									{
										OFFSET 3.465431 0.000000 0.000000
										CHANNELS 3 Xrotation Yrotation Zrotation
										JOINT mixamorig7:LeftHandMiddle3
										{
											OFFSET 3.340118 0.000000 0.000000
											CHANNELS 3 Xrotation Yrotation Zrotation
											JOINT mixamorig7:LeftHandMiddle4
											{
												OFFSET 2.993599 0.000000 0.000000
												CHANNELS 3 Xrotation Yrotation Zrotation
												End Site
												{
													OFFSET 2.993607 -0.000061 -0.003500
												}
											}
										}
									}
								}
								JOINT mixamorig7:LeftHandRing1
								{
									OFFSET 11.215385 -0.016006 -2.298895
									CHANNELS 3 Xrotation Yrotation Zrotation
									JOINT mixamorig7:LeftHandRing2
									{
										OFFSET 2.891907 0.000000 0.000000
										CHANNELS 3 Xrotation Yrotation Zrotation
										JOINT mixamorig7:LeftHandRing3
										{
											OFFSET 2.705215 0.000000 0.000000
											CHANNELS 3 Xrotation Yrotation Zrotation
											JOINT mixamorig7:LeftHandRing4
											{
												OFFSET 2.307037 0.000000 0.000000
												CHANNELS 3 Xrotation Yrotation Zrotation
												End Site
												{
													OFFSET 2.307007 0.000351 0.012295
												}
											}
										}
									}
								}
								JOINT mixamorig7:LeftHandPinky1
								{
									OFFSET 9.863464 -0.351425 -4.395246
									CHANNELS 3 Xrotation Yrotation Zrotation
									JOINT mixamorig7:LeftHandPinky2
									{
										OFFSET 2.647736 0.000000 0.000000
										CHANNELS 3 Xrotation Yrotation Zrotation
										JOINT mixamorig7:LeftHandPinky3
										{
											OFFSET 2.219719 0.000000 0.000000
											CHANNELS 3 Xrotation Yrotation Zrotation
											JOINT mixamorig7:LeftHandPinky4
											{
												OFFSET 1.855507 0.000000 0.000000
												CHANNELS 3 Xrotation Yrotation Zrotation
												End Site
												{
													OFFSET 1.855507 -0.000122 -0.005599
												}
											}
										}
									}
								}
							}
						}
					}
				}
				JOINT mixamorig7:RightShoulder
				{
					OFFSET -6.681300 12.786102 -1.707222
					CHANNELS 3 Xrotation Yrotation Zrotation
					JOINT mixamorig7:RightArm
					{
						OFFSET -13.585576 -3.446152 -0.085196
						CHANNELS 3 Xrotation Yrotation Zrotation
						JOINT mixamorig7:RightForeArm
						{
							OFFSET -27.318214 0.000000 0.000002
							CHANNELS 3 Xrotation Yrotation Zrotation
							JOINT mixamorig7:RightHand
							{
								OFFSET -20.889801 0.000000 0.000001
								CHANNELS 3 Xrotation Yrotation Zrotation
								JOINT mixamorig7:RightHandThumb1
								{
									OFFSET -4.042946 -1.401764 2.740883
									CHANNELS 3 Xrotation Yrotation Zrotation
									JOINT mixamorig7:RightHandThumb2
									{
										OFFSET -3.149010 -1.818085 1.818083
										CHANNELS 3 Xrotation Yrotation Zrotation
										JOINT mixamorig7:RightHandThumb3
										{
											OFFSET -2.605377 -1.504211 1.504218
											CHANNELS 3 Xrotation Yrotation Zrotation
											JOINT mixamorig7:RightHandThumb4
											{
												OFFSET -2.034538 -1.174637 1.174643
												CHANNELS 3 Xrotation Yrotation Zrotation
												End Site
												{
													OFFSET -1.808716 -1.141098 1.524937
												}
											}
										}
									}
								}
								JOINT mixamorig7:RightHandIndex1
								{
									OFFSET -11.498108 -0.223465 2.596514
									CHANNELS 3 Xrotation Yrotation Zrotation
									JOINT mixamorig7:RightHandIndex2
									{
										OFFSET -3.230072 0.000000 0.000000
										CHANNELS 3 Xrotation Yrotation Zrotation
										JOINT mixamorig7:RightHandIndex3
										{
											OFFSET -3.008400 0.000000 0.000000
											CHANNELS 3 Xrotation Yrotation Zrotation
											JOINT mixamorig7:RightHandIndex4
											{
												OFFSET -2.577469 0.000000 0.000000
												CHANNELS 3 Xrotation Yrotation Zrotation
												End Site
												{
													OFFSET -2.577400 -0.000381 -0.019196
												}
											}
										}
									}
								}
								JOINT mixamorig7:RightHandMiddle1
								{
									OFFSET -11.291573 0.000000 0.000000
									CHANNELS 3 Xrotation Yrotation Zrotation
									JOINT mixamorig7:RightHandMiddle2
									{
										OFFSET -3.513855 0.000000 0.000000
										CHANNELS 3 Xrotation Yrotation Zrotation
										JOINT mixamorig7:RightHandMiddle3
										{
											OFFSET -3.299538 0.000000 0.000000
											CHANNELS 3 Xrotation Yrotation Zrotation
											JOINT mixamorig7:RightHandMiddle4
											{
												OFFSET -2.888702 0.000000 0.000000
												CHANNELS 3 Xrotation Yrotation Zrotation
												End Site
												{
													OFFSET -2.888702 -0.000076 -0.003599
												}
											}
										}
									}
								}
								JOINT mixamorig7:RightHandRing1
								{
									OFFSET -11.158524 -0.069885 -2.264038
									CHANNELS 3 Xrotation Yrotation Zrotation
									JOINT mixamorig7:RightHandRing2
									{
										OFFSET -2.878105 0.000000 0.000000
										CHANNELS 3 Xrotation Yrotation Zrotation
										JOINT mixamorig7:RightHandRing3
										{
											OFFSET -2.739204 0.000000 0.000000
											CHANNELS 3 Xrotation Yrotation Zrotation
											JOINT mixamorig7:RightHandRing4
											{
												OFFSET -2.335304 0.000000 0.000000
												CHANNELS 3 Xrotation Yrotation Zrotation
												End Site
												{
													OFFSET -2.335297 0.000061 0.001999
												}
											}
										}
									}
								}
								JOINT mixamorig7:RightHandPinky1
								{
									OFFSET -9.865288 -0.197952 -4.417972
									CHANNELS 3 Xrotation Yrotation Zrotation
									JOINT mixamorig7:RightHandPinky2
									{
										OFFSET -2.659409 0.000000 0.000000
										CHANNELS 3 Xrotation Yrotation Zrotation
										JOINT mixamorig7:RightHandPinky3
										{
											OFFSET -2.181625 0.000000 0.000000
											CHANNELS 3 Xrotation Yrotation Zrotation
											JOINT mixamorig7:RightHandPinky4
											{
												OFFSET -1.923111 0.000000 0.000000
												CHANNELS 3 Xrotation Yrotation Zrotation
												End Site
												{
													OFFSET -1.923103 0.000153 0.005198
												}
											}
										}
									}
								}
							}
						}
					}
				}
			}
		}
	}
	JOINT mixamorig7:LeftUpLeg
	{
		OFFSET 8.726300 -5.393196 -0.445400
		CHANNELS 3 Xrotation Yrotation Zrotation
		JOINT mixamorig7:LeftLeg
		{
			OFFSET 0.203112 -40.995728 -2.240422
			CHANNELS 3 Xrotation Yrotation Zrotation
			JOINT mixamorig7:LeftFoot
			{
				OFFSET -0.203116 -41.811745 -4.341125
				CHANNELS 3 Xrotation Yrotation Zrotation
				JOINT mixamorig7:LeftToeBase
				{
					OFFSET 2.022961 -9.567262 15.917597
					CHANNELS 3 Xrotation Yrotation Zrotation
					JOINT mixamorig7:LeftToe_End
					{
						OFFSET 0.919500 0.587269 6.993709
						CHANNELS 3 Xrotation Yrotation Zrotation
						End Site
						{
							OFFSET 0.919500 0.587269 6.993710
						}
					}
				}
			}
		}
	}
	JOINT mixamorig7:RightUpLeg
	{
		OFFSET -8.726300 -5.393196 -0.458900
		CHANNELS 3 Xrotation Yrotation Zrotation
		JOINT mixamorig7:RightLeg
		{
			OFFSET -0.203119 -40.995686 -2.183443
			CHANNELS 3 Xrotation Yrotation Zrotation
			JOINT mixamorig7:RightFoot
			{
				OFFSET 0.203109 -41.812000 -3.686646
				CHANNELS 3 Xrotation Yrotation Zrotation
				JOINT mixamorig7:RightToeBase
				{
					OFFSET -2.022940 -9.566534 15.362668
					CHANNELS 3 Xrotation Yrotation Zrotation
					JOINT mixamorig7:RightToe_End
					{
						OFFSET -0.919481 0.587567 7.048032
						CHANNELS 3 Xrotation Yrotation Zrotation
						End Site
						{
							OFFSET -0.919481 0.587567 7.048031
						}
					}
				}
			}
		}
	}
}
MOTION
Frames: 5
Frame Time: 0.016667
132.588638 95.109993 -22.088165 193.286731 -150.830712 -173.295915 17.267507 11.780472 -5.757675 1.849586 1.650012 0.290959 1.829980 1.672957 0.280267 -29.073919 -1.746921 3.496857 4.996065 -1.717869 -16.656446 0.000000 -0.000000 -0.000001 0.587245 -2.843954 -9.392649 26.274548 -16.566132 -25.195859 0.000006 -127.407070 0.000002 20.928005 -10.321977 -0.425495 -1.540046 3.690186 6.142354 14.069730 14.805074 1.548659 9.278733 9.257267 1.812870 0.000001 0.000000 0.000000 -0.436374 -2.784275 -7.883935 0.074286 1.010778 -8.406658 0.000013 -0.000008 -0.000006 -0.000001 -0.000001 0.000001 -0.000008 -0.001928 0.015980 0.080961 1.054977 -8.777252 0.000002 0.000013 0.000005 -0.000000 -0.000000 0.000000 0.058010 0.893815 -7.427750 0.080677 1.053086 -8.761268 -0.000009 -0.000004 -0.000002 -0.000002 -0.000001 -0.000001 1.005883 8.601611 -6.546846 0.072091 -3.001929 -9.266040 0.000003 -0.000005 0.000004 0.000002 0.000000 -0.000000 0.526492 5.023465 13.898387 22.740457 41.334396 26.212415 -0.000027 57.530636 0.000031 19.278142 10.242637 -10.241860 -1.849261 -3.581799 -6.586146 8.378682 -23.064690 -13.578890 -1.273752 0.137316 -2.094863 0.000000 0.000004 -0.000002 -0.010182 3.092162 0.377187 0.022447 -0.559440 4.595643 0.000001 0.000003 0.000008 -0.000001 0.000000 -0.000001 -0.000006 0.000009 0.000006 0.438611 -2.434847 20.421055 -0.000001 -0.000003 -0.000001 -0.000002 -0.000001 0.000002 -0.000010 0.000011 0.000010 0.065872 -0.956783 7.876432 0.000013 0.000008 -0.000009 -0.000000 0.000003 -0.000004 -0.033091 -5.565837 -0.680460 0.179498 -1.572770 13.020709 -0.000007 -0.000009 0.000001 -0.000002 -0.000001 0.000001 -28.585134 -3.791029 27.245058 20.192922 7.711284 4.614492 31.489754 -3.385203 -15.391853 -15.290425 1.560782 -9.549422 -0.000001 0.000002 -0.000000 -36.166996 -12.301317 -1.916906 36.839117 -3.225560 -1.209054 -12.628063 0.322195 -1.807196 -0.930993 -0.000014 0.000004 -0.000000 -0.000003 -0.000000 
133.353790 94.867325 -21.763863 194.797487 -151.540615 -175.199051 15.493111 11.007957 -5.022547 1.312724 1.462404 1.990579 1.261917 1.528047 1.974064 -30.969321 -1.429709 3.052016 6.415771 -1.689719 -13.599561 -0.000000 -0.000001 -0.000000 0.594990 -2.515583 -10.509503 26.223183 -16.225026 -27.176976 0.000022 -129.104427 0.000020 21.308573 -10.299978 -0.042490 -1.540042 3.690194 6.142346 14.069730 14.805080 1.548658 9.278734 9.257270 1.812866 -0.000003 0.000005 0.000002 -0.427747 -2.806993 -7.706861 0.071595 0.992416 -8.252910 0.000003 0.000008 0.000004 0.000002 0.000000 0.000000 -0.000007 -0.001926 0.015974 0.077995 1.035562 -8.614413 -0.000004 0.000013 0.000003 -0.000003 -0.000002 -0.000000 0.055293 0.872625 -7.250691 0.077700 1.033643 -8.598425 -0.000000 0.000013 0.000001 -0.000003 0.000001 -0.000000 0.979083 8.583314 -6.367452 0.068943 -3.021320 -9.103429 0.000002 0.000000 0.000000 -0.000001 -0.000000 -0.000000 0.509880 5.247576 14.605145 23.866645 40.469250 24.944274 -0.000020 52.241453 0.000014 17.813811 13.438854 -9.923743 -1.849260 -3.581799 -6.586149 8.378693 -23.064675 -13.578892 -1.273753 0.137327 -2.094863 0.000003 0.000003 -0.000002 -0.010179 3.092160 0.377185 0.025279 -0.593679 4.877634 0.000005 -0.000004 -0.000001 -0.000001 -0.000003 0.000001 -0.000008 0.000007 -0.000005 0.438638 -2.434834 20.421045 0.000001 -0.000002 -0.000007 0.000001 -0.000000 -0.000000 -0.000002 0.000001 -0.000000 0.070663 -0.990797 8.158459 0.000020 0.000003 -0.000004 -0.000000 0.000001 -0.000002 -0.033094 -5.565830 -0.680464 0.188294 -1.610376 13.337652 0.000010 -0.000010 -0.000000 -0.000001 -0.000001 0.000001 -30.856589 -6.325117 29.202942 22.705543 6.669509 4.804191 30.049349 -3.708257 -17.798758 -16.434142 1.348366 -8.920076 0.000000 0.000001 0.000000 -36.759177 -14.603477 -0.666204 35.897692 -2.902342 -0.979694 -12.347675 0.297131 -1.671573 -0.548517 -0.000038 -0.000002 -0.000001 -0.000005 -0.000000 
134.134262 94.790245 -21.403778 195.733742 -152.948891 -176.982414 14.466132 8.953500 -4.273170 0.817167 1.108045 3.419366 0.758094 1.205000 3.402026 -32.889109 -0.872325 1.587929 8.480864 -1.514562 -8.267550 -0.000000 -0.000001 -0.000000 0.607179 -1.964980 -11.239281 26.007100 -16.365951 -29.129924 0.000035 -129.912138 0.000013 21.645370 -10.355624 0.283918 -1.540032 3.690201 6.142352 14.069729 14.805075 1.548655 9.278731 9.257261 1.812865 0.000002 0.000003 0.000000 -0.421190 -2.824064 -7.573509 0.069610 0.978605 -8.137118 -0.000000 0.000003 0.000001 -0.000003 -0.000001 0.000000 0.000001 -0.001923 0.015979 0.075803 1.020948 -8.491795 0.000002 -0.000003 -0.000002 0.000001 0.000001 -0.000000 0.053289 0.856668 -7.117331 0.075506 1.019021 -8.475814 -0.000004 -0.000003 -0.000008 -0.000005 -0.000000 0.000000 0.958937 8.569488 -6.232370 0.066625 -3.035936 -8.980974 0.000003 0.000010 0.000001 -0.000001 -0.000001 -0.000000 0.478015 5.700355 15.388394 24.740195 39.490320 23.952903 -0.000015 48.092021 0.000005 16.254827 16.392396 -9.399132 -1.849259 -3.581800 -6.586143 8.378675 -23.064698 -13.578893 -1.273758 0.137325 -2.094866 -0.000003 -0.000000 -0.000005 -0.010179 3.092161 0.377188 0.028167 -0.626553 5.148509 0.000006 -0.000008 0.000003 0.000001 0.000001 -0.000001 0.000008 -0.000000 -0.000007 0.438631 -2.434841 20.421045 -0.000002 0.000001 0.000009 -0.000000 0.000002 -0.000000 0.000008 -0.000002 -0.000007 0.075426 -1.023466 8.429390 0.000004 0.000006 -0.000000 0.000000 0.000001 0.000001 -0.033089 -5.565836 -0.680461 0.196953 -1.646396 13.642139 0.000002 -0.000007 0.000003 -0.000001 -0.000003 -0.000001 -32.761750 -8.054977 30.149923 24.263009 6.403692 5.021985 28.297651 -3.722792 -19.375391 -16.722166 1.024147 -7.813425 -0.000000 0.000002 -0.000000 -36.822646 -16.684252 0.083643 34.788660 -3.135281 -1.036652 -11.845733 0.150055 -0.894279 -0.277567 -0.000010 0.000008 -0.000001 -0.000001 -0.000000 
134.924759 94.827515 -20.995226 196.241061 -154.655140 -178.594229 13.877938 6.303134 -3.620116 0.469830 0.686594 4.614298 0.417139 0.807868 4.599585 -34.463038 -0.111765 -0.923170 10.466094 -1.206827 -0.674078 0.000000 0.000001 -0.000000 0.622809 -1.392967 -11.552100 25.516012 -16.929826 -31.106198 0.000012 -129.946057 0.000003 22.016871 -10.408963 0.552650 -1.540045 3.690194 6.142355 14.069729 14.805077 1.548662 9.278733 9.257264 1.812863 0.000001 -0.000001 0.000001 -0.416400 -2.836466 -7.476575 0.068181 0.968548 -8.052970 -0.000006 -0.000006 0.000003 0.000002 -0.000000 -0.000000 -0.000002 -0.001925 0.015983 0.074207 1.010307 -8.402666 -0.000000 0.000007 -0.000004 -0.000001 0.000001 -0.000000 0.051834 0.845064 -7.020410 0.073932 1.008387 -8.386690 -0.000004 -0.000008 -0.000005 -0.000003 -0.000000 -0.000000 0.944323 8.559407 -6.134197 0.064943 -3.046547 -8.891961 -0.000001 -0.000013 -0.000004 0.000001 -0.000001 -0.000000 0.433371 6.250304 16.126072 25.343275 38.325653 23.281084 0.000007 45.161870 -0.000006 14.840796 18.788694 -8.820081 -1.849262 -3.581804 -6.586142 8.378690 -23.064680 -13.578904 -1.273760 0.137327 -2.094864 -0.000003 0.000006 0.000001 -0.010179 3.092157 0.377188 0.030615 -0.653217 5.368201 0.000004 -0.000002 0.000007 0.000001 0.000003 0.000002 0.000005 -0.000009 0.000000 0.438645 -2.434818 20.421045 0.000000 -0.000001 -0.000004 0.000002 -0.000000 -0.000003 -0.000000 -0.000005 0.000008 0.079399 -1.049929 8.649116 0.000011 0.000003 0.000001 0.000001 -0.000002 0.000001 -0.033090 -5.565838 -0.680461 0.204105 -1.675623 13.889092 -0.000005 0.000000 0.000005 0.000003 0.000000 -0.000000 -34.149317 -9.114434 30.377673 24.992941 6.825426 5.268073 26.271020 -3.534523 -20.439462 -16.274440 0.697240 -6.483362 -0.000000 0.000001 0.000000 -36.517760 -18.429196 0.496711 33.609343 -3.734072 -1.262204 -11.286199 -0.014651 0.035613 -0.098410 0.000008 0.000005 -0.000000 -0.000001 0.000000 
135.715790 94.967445 -20.525232 196.333419 -156.320135 -179.862404 13.680132 3.570508 -3.233349 0.412691 0.276447 5.501009 0.382385 0.418171 5.493605 -35.217043 0.726050 -4.232050 11.401496 -0.936557 8.543225 0.000000 0.000001 -0.000001 0.626104 -0.901627 -11.200233 24.544988 -17.993363 -33.245157 0.000013 -129.184695 0.000011 22.539947 -10.443669 0.742463 -1.540050 3.690195 6.142354 14.069727 14.805075 1.548658 9.278732 9.257264 1.812869 0.000002 0.000002 0.000002 -0.414112 -2.842371 -7.430497 0.067487 0.963769 -8.012953 0.000001 0.000003 0.000010 0.000003 -0.000001 0.000001 -0.000008 -0.001919 0.015983 0.073477 1.005235 -8.360292 0.000002 -0.000002 -0.000004 -0.000002 0.000000 -0.000000 0.051163 0.839529 -6.974335 0.073190 1.003340 -8.344300 -0.000007 -0.000005 -0.000003 0.000002 -0.000000 -0.000001 0.937383 8.554602 -6.087523 0.064153 -3.051611 -8.849629 -0.000000 0.000014 0.000006 0.000001 -0.000000 0.000000 0.375007 6.912758 16.783539 25.672432 36.777338 22.909525 0.000017 43.873850 -0.000024 13.973836 20.093971 -8.468490 -1.849263 -3.581800 -6.586146 8.378681 -23.064690 -13.578888 -1.273756 0.137321 -2.094871 -0.000002 -0.000001 0.000000 -0.010178 3.092161 0.377187 0.031839 -0.666085 5.474149 0.000007 -0.000008 0.000008 -0.000002 0.000002 -0.000001 -0.000009 0.000004 0.000003 0.438632 -2.434836 20.421036 -0.000004 -0.000002 -0.000000 0.000000 -0.000002 0.000002 0.000003 -0.000006 0.000004 0.081339 -1.062689 8.755128 0.000013 -0.000008 -0.000004 0.000000 -0.000002 0.000002 -0.033092 -5.565835 -0.680460 0.207605 -1.689698 14.008202 0.000006 0.000000 0.000003 0.000001 -0.000001 -0.000001 -34.613483 -9.350647 30.049007 24.469040 8.641851 5.560006 24.176023 -3.446407 -20.925751 -14.881288 0.426006 -5.103985 0.000000 0.000001 -0.000000 -35.836001 -19.579033 0.600253 32.370947 -4.434931 -1.538061 -10.728625 -0.165059 0.969413 -0.017815 -0.000007 0.000003 -0.000001 -0.000000 -0.000000 
